<?xml version="1.0" standalone="no"?>
<!DOCTYPE svg PUBLIC "-//W3C//DTD SVG 20010904//EN"
 "http://www.w3.org/TR/2001/REC-SVG-20010904/DTD/svg10.dtd">
<svg version="1.0" xmlns="http://www.w3.org/2000/svg"
 width="200.000000pt" height="200.000000pt" viewBox="0 0 200.000000 200.000000"
 preserveAspectRatio="xMidYMid meet">

<g transform="translate(0.000000,200.000000) scale(0.100000,-0.100000)"
fill="#000000" stroke="none">
<path d="M291 1870 c-82 -17 -145 -84 -161 -171 -13 -70 -13 -1329 0 -1399 11
-58 42 -106 92 -142 32 -22 42 -23 241 -26 l207 -3 0 40 0 41 -191 0 -191 0
-39 39 -39 39 0 712 0 712 39 39 39 39 230 0 230 0 4 -159 c3 -159 3 -159 33
-203 17 -24 51 -54 75 -68 42 -24 55 -25 218 -28 l172 -4 0 -79 0 -79 41 0 41
0 -4 104 c-3 91 -6 108 -28 138 -36 51 -446 424 -489 445 -31 15 -67 18 -256
20 -121 1 -240 -2 -264 -7z m723 -297 l167 -153 -134 0 c-123 0 -137 2 -162
22 -43 33 -55 76 -55 189 0 56 4 99 9 97 5 -1 84 -72 175 -155z"/>
<path d="M840 981 c-16 -30 -14 -812 3 -834 11 -16 51 -17 517 -15 l505 3 3
424 c2 333 0 426 -10 433 -7 4 -237 8 -510 8 -482 0 -498 -1 -508 -19z m950
-416 l0 -355 -435 0 -435 0 0 355 0 355 435 0 435 0 0 -355z"/>
<path d="M1183 783 c-10 -3 -13 -57 -13 -218 0 -205 1 -215 20 -225 25 -13 11
-21 198 112 123 88 152 114 152 133 0 20 -24 37 -159 114 -152 88 -171 95
-198 84z m215 -190 c23 -14 22 -15 -50 -67 -40 -28 -79 -55 -85 -60 -10 -5
-13 17 -13 103 l0 110 63 -36 c34 -19 72 -42 85 -50z"/>
</g>
</svg>
